<svg xmlns="http://www.w3.org/2000/svg" viewBox="0 0 64 64" fill="none">
  <rect width="64" height="64" rx="18" fill="#FFF8EE"/>
  <path
    d="M18 20.5C18 17.4624 20.4624 15 23.5 15H40.5C43.5376 15 46 17.4624 46 20.5V43.5C46 46.5376 43.5376 49 40.5 49H23.5C20.4624 49 18 46.5376 18 43.5V20.5Z"
    fill="#171412"
  />
  <path
    d="M28 24.5C28 23.1193 29.1193 22 30.5 22H44V41.5C44 42.8807 42.8807 44 41.5 44H28V24.5Z"
    fill="#EDE4D6"
  />
  <path
    d="M24 26.5C24 24.567 25.567 23 27.5 23H38.5"
    stroke="#EDE4D6"
    stroke-linecap="round"
    stroke-width="3.5"
  />
  <path
    d="M24 33H38"
    stroke="#EDE4D6"
    stroke-linecap="round"
    stroke-width="3.5"
  />
  <path
    d="M24 39.5H35.5"
    stroke="#EDE4D6"
    stroke-linecap="round"
    stroke-width="3.5"
  />
</svg>
